<svg id="Layer_1" data-name="Layer 1" xmlns="http://www.w3.org/2000/svg" viewBox="0 0 68.24 28.22"><defs><style>.cls-1{fill:#f05b41;}.cls-2{fill:#808184;}.cls-3{fill:#fff;}</style></defs><path class="cls-1" d="M157.18,60.27c-.54-3.47-2.39-4.32-3.92-4.84s-9.13-.81-15.71-.81-14.17.28-15.7.81-3.39,1.37-3.92,4.84a66.46,66.46,0,0,0,0,16.91c.53,3.48,2.38,4.33,3.92,4.85s9.13.81,15.7.81,14.18-.28,15.71-.81,3.38-1.37,3.92-4.85a67.71,67.71,0,0,0,0-16.91Z" transform="translate(-89.48 -54.62)"/><path class="cls-2" d="M96.23,59.34l-1.87,9s0,0,0,0l-1.86-9h-3l3.4,12.17v5.8H95.8v-5.8l3.4-12.17Z" transform="translate(-89.48 -54.62)"/><path class="cls-2" d="M106.18,66.92a3.94,3.94,0,0,0-7.65,0,17.27,17.27,0,0,0-.27,3.85,17.42,17.42,0,0,0,.27,3.86,3.94,3.94,0,0,0,7.65,0,17.42,17.42,0,0,0,.27-3.86A17.27,17.27,0,0,0,106.18,66.92Zm-2.74,7c-.14,1.55-.9,1.64-1.08,1.64s-1-.09-1.09-1.64c0-.2,0-2.79,0-3.15s0-2.94,0-3.14c.14-1.55.9-1.64,1.09-1.64s.94.09,1.08,1.64c0,.2,0,2.79,0,3.14S103.45,73.7,103.44,73.9Z" transform="translate(-89.48 -54.62)"/><path class="cls-2" d="M112.66,64.2V74.53a.42.42,0,0,1-.07.24,1.34,1.34,0,0,1-1.15.73.89.89,0,0,1-.85-.84V64.2h-3V74.66c0,.75.25,3.07,2.69,3A3.16,3.16,0,0,0,113,75.76h.12l.21,1.61h2.35V64.2Z" transform="translate(-89.48 -54.62)"/><path class="cls-3" d="M133.33,64.2V74.53a.51.51,0,0,1-.07.24,1.34,1.34,0,0,1-1.15.73.89.89,0,0,1-.85-.84V64.2h-3V74.66c0,.75.25,3.07,2.69,3a3.16,3.16,0,0,0,2.69-1.86h.11l.22,1.61h2.35V64.2Z" transform="translate(-89.48 -54.62)"/><polygon class="cls-3" points="39.64 4.71 30.91 4.71 30.91 7.11 33.82 7.11 33.82 22.69 36.72 22.69 36.72 7.11 39.64 7.11 39.64 4.71"/><path class="cls-3" d="M146,70.26c0-1.37-.17-3.44-.21-3.75-.29-1.94-1.34-2.33-1.62-2.41a3,3,0,0,0-2.47.29,3.85,3.85,0,0,0-1.15,1.29v-7H137.7V77.31h2.44l.28-1.19h.13a2.79,2.79,0,0,0,2.68,1.43c1.86-.13,2.13-1.54,2.47-2.57A20.76,20.76,0,0,0,146,70.26Zm-3.16,3.91c-.15,1.1-.86,1.26-1.13,1.26a1.29,1.29,0,0,1-1.16-.77V67.21c.5-1,1-1.12,1.21-1.17a.82.82,0,0,1,.93.51,9.8,9.8,0,0,1,.36,3.61A32.94,32.94,0,0,1,142.84,74.17Z" transform="translate(-89.48 -54.62)"/><path class="cls-3" d="M152.08,73.28a6.81,6.81,0,0,1-.09,1.25,1.11,1.11,0,0,1-1,1c-.72.05-.89-.42-1.05-.83a7.7,7.7,0,0,1-.14-1.85v-1.2h4.95A37.45,37.45,0,0,0,154.6,67c-.4-2.08-1.22-3.06-3.54-3s-2.85.75-3.52,1.84-.61,3.4-.61,5.25c0,1.23.06,2.32.09,2.8.4,3.27,2.37,3.7,4,3.66a3.6,3.6,0,0,0,3.11-1.33,4.39,4.39,0,0,0,.52-2.74S152.4,73.31,152.08,73.28Zm-2.22-5.82c0-1.4.65-1.49,1-1.49s.95.09,1,1.49.05,2.57.05,2.57H149.8S149.8,68.86,149.86,67.46Z" transform="translate(-89.48 -54.62)"/></svg>